<svg xmlns="http://www.w3.org/2000/svg" viewBox="0 0 512 512"><rect width="512" height="512" rx="96" fill="#18776f"/><g fill="#ffffff"><rect x="76" y="76" width="48" height="48" rx="6"/><rect x="82" y="82" width="36" height="36" rx="3" fill="#18776f"/><rect x="88" y="88" width="24" height="24" rx="2" fill="#ffffff"/><rect x="388" y="76" width="48" height="48" rx="6"/><rect x="394" y="82" width="36" height="36" rx="3" fill="#18776f"/><rect x="400" y="88" width="24" height="24" rx="2" fill="#ffffff"/><rect x="76" y="388" width="48" height="48" rx="6"/><rect x="82" y="394" width="36" height="36" rx="3" fill="#18776f"/><rect x="88" y="400" width="24" height="24" rx="2" fill="#ffffff"/><rect x="234" y="76" width="18" height="18" rx="3"/><rect x="200" y="120" width="18" height="18" rx="3"/><rect x="302" y="120" width="18" height="18" rx="3"/><rect x="166" y="164" width="18" height="18" rx="3"/><rect x="268" y="164" width="18" height="18" rx="3"/><rect x="370" y="164" width="18" height="18" rx="3"/><rect x="132" y="208" width="18" height="18" rx="3"/><rect x="234" y="208" width="18" height="18" rx="3"/><rect x="336" y="208" width="18" height="18" rx="3"/><rect x="200" y="252" width="18" height="18" rx="3"/><rect x="302" y="252" width="18" height="18" rx="3"/><rect x="166" y="296" width="18" height="18" rx="3"/><rect x="268" y="296" width="18" height="18" rx="3"/><rect x="370" y="296" width="18" height="18" rx="3"/><rect x="234" y="340" width="18" height="18" rx="3"/><rect x="336" y="340" width="18" height="18" rx="3"/><rect x="200" y="384" width="18" height="18" rx="3"/><rect x="302" y="384" width="18" height="18" rx="3"/></g><rect x="52" y="252" width="408" height="10" rx="5" fill="#34d399" opacity="0.95"/></svg>