<svg xmlns="http://www.w3.org/2000/svg" viewBox="0 0 512 512"><defs><linearGradient id="g" x1="0" y1="0" x2="1" y2="1"><stop offset="0%" stop-color="#18776f"/><stop offset="100%" stop-color="#0d9488"/></linearGradient></defs><rect width="512" height="512" rx="96" fill="url(#g)"/><rect x="70" y="70" width="48" height="48" rx="6" fill="none" stroke="#f0fdfa" stroke-width="10"/><rect x="78" y="78" width="32" height="32" rx="3" fill="none" stroke="#f0fdfa" stroke-width="6"/><rect x="86" y="86" width="16" height="16" rx="2" fill="#f0fdfa"/><rect x="394" y="70" width="48" height="48" rx="6" fill="none" stroke="#f0fdfa" stroke-width="10"/><rect x="402" y="78" width="32" height="32" rx="3" fill="none" stroke="#f0fdfa" stroke-width="6"/><rect x="410" y="86" width="16" height="16" rx="2" fill="#f0fdfa"/><rect x="70" y="394" width="48" height="48" rx="6" fill="none" stroke="#f0fdfa" stroke-width="10"/><rect x="78" y="402" width="32" height="32" rx="3" fill="none" stroke="#f0fdfa" stroke-width="6"/><rect x="86" y="410" width="16" height="16" rx="2" fill="#f0fdfa"/><g fill="#f0fdfa" opacity="0.9"><rect x="140" y="76" width="14" height="14" rx="2"/><rect x="248" y="76" width="14" height="14" rx="2"/><rect x="356" y="76" width="14" height="14" rx="2"/><rect x="212" y="120" width="14" height="14" rx="2"/><rect x="320" y="120" width="14" height="14" rx="2"/><rect x="176" y="164" width="14" height="14" rx="2"/><rect x="284" y="164" width="14" height="14" rx="2"/><rect x="140" y="208" width="14" height="14" rx="2"/><rect x="248" y="208" width="14" height="14" rx="2"/><rect x="356" y="208" width="14" height="14" rx="2"/><rect x="212" y="252" width="14" height="14" rx="2"/><rect x="320" y="252" width="14" height="14" rx="2"/><rect x="176" y="296" width="14" height="14" rx="2"/><rect x="284" y="296" width="14" height="14" rx="2"/><rect x="140" y="340" width="14" height="14" rx="2"/><rect x="248" y="340" width="14" height="14" rx="2"/><rect x="356" y="340" width="14" height="14" rx="2"/><rect x="140" y="314" width="14" height="14" rx="2"/><rect x="248" y="314" width="14" height="14" rx="2"/><rect x="356" y="314" width="14" height="14" rx="2"/><rect x="212" y="358" width="14" height="14" rx="2"/><rect x="320" y="358" width="14" height="14" rx="2"/><rect x="176" y="402" width="14" height="14" rx="2"/><rect x="284" y="402" width="14" height="14" rx="2"/><rect x="140" y="446" width="14" height="14" rx="2"/><rect x="248" y="446" width="14" height="14" rx="2"/><rect x="356" y="446" width="14" height="14" rx="2"/><rect x="212" y="490" width="14" height="14" rx="2"/><rect x="320" y="490" width="14" height="14" rx="2"/><rect x="176" y="534" width="14" height="14" rx="2"/><rect x="284" y="534" width="14" height="14" rx="2"/><rect x="140" y="578" width="14" height="14" rx="2"/><rect x="248" y="578" width="14" height="14" rx="2"/><rect x="356" y="578" width="14" height="14" rx="2"/></g><line x1="56" y1="256" x2="456" y2="256" stroke="#34d399" stroke-width="6" stroke-linecap="round" opacity="0.9"><animate attributeName="y1" values="80;432;80" dur="2s" repeatCount="indefinite"/><animate attributeName="y2" values="80;432;80" dur="2s" repeatCount="indefinite"/></line></svg>